<svg width="48" height="48" fill="none" xmlns="http://www.w3.org/2000/svg"><path d="M8.853 40.801L5.484 3h37.032l-3.373 37.795L23.976 45 8.853 40.801z" fill="#1572B6"/><path d="M24 41.787l12.255-3.398 2.883-32.298H24v35.696z" fill="#33A9DC"/><path d="M24 19.787h6.135l.423-4.748H24v-4.636h11.625l-.111 1.243-1.139 12.777H24v-4.636z" fill="#fff"/><path d="M24.029 31.827l-.021.006-5.163-1.395-.33-3.697H13.86l.65 7.279 9.496 2.637.023-.006v-4.824z" fill="#EBEBEB"/><path d="M29.74 24.227l-.557 6.208-5.171 1.395v4.824l9.504-2.634.07-.783.806-9.01H29.74z" fill="#fff"/><path d="M24.017 10.402v4.637h-11.2l-.092-1.043-.212-2.35-.111-1.244h11.615zM24 19.788v4.636h-5.099l-.093-1.042-.21-2.351-.11-1.244H24z" fill="#EBEBEB"/></svg>