<svg width="32" height="48" fill="none" xmlns="http://www.w3.org/2000/svg"><g clip-path="url(#clip0_6_193)"><path d="M8 48c4.416 0 8-3.584 8-8v-8H8c-4.416 0-8 3.584-8 8s3.584 8 8 8z" fill="#0ACF83"/><path d="M0 24c0-4.416 3.584-8 8-8h8v16H8c-4.416 0-8-3.584-8-8z" fill="#A259FF"/><path d="M0 8c0-4.416 3.584-8 8-8h8v16H8c-4.416 0-8-3.584-8-8z" fill="#F24E1E"/><path d="M16 0h8c4.416 0 8 3.584 8 8s-3.584 8-8 8h-8V0z" fill="#FF7262"/><path d="M32 24c0 4.416-3.584 8-8 8s-8-3.584-8-8 3.584-8 8-8 8 3.584 8 8z" fill="#1ABCFE"/></g><defs><clipPath id="clip0_6_193"><path fill="#fff" d="M0 0h32v48H0z"/></clipPath></defs></svg>