<svg width="48" height="48" fill="none" xmlns="http://www.w3.org/2000/svg"><path d="M8.853 40.801L5.483 3h37.034l-3.375 37.795L23.977 45 8.853 40.801z" fill="#E44F26"/><path d="M24 41.787l12.255-3.398 2.883-32.298H24v35.696z" fill="#F1662A"/><path d="M24 20.11h-6.135l-.423-4.747H24v-4.636H12.375l.111 1.245 1.138 12.775H24V20.11zm0 12.041l-.021.006-5.163-1.393-.33-3.698h-4.655l.65 7.278 9.498 2.637.021-.006v-4.824z" fill="#EBEBEB"/><path d="M23.983 20.11v4.637h5.71l-.538 6.014-5.172 1.395v4.824l9.506-2.636.069-.783 1.089-12.206.114-1.245H23.983zm0-9.383v4.636h11.2l.093-1.041.211-2.35.111-1.245H23.984z" fill="#fff"/></svg>