<svg width="48" height="48" fill="none" xmlns="http://www.w3.org/2000/svg"><g clip-path="url(#clip0_6_170)"><path d="M0 0h48v48H0V0z" fill="#F7DF1E"/><path d="M12.621 40.112l3.673-2.223c.709 1.257 1.354 2.32 2.9 2.32 1.482 0 2.417-.58 2.417-2.835V22.037h4.51v15.4c0 4.672-2.738 6.8-6.734 6.8-3.608 0-5.703-1.87-6.766-4.125zm15.95-.483l3.673-2.127c.967 1.58 2.224 2.74 4.447 2.74 1.869 0 3.06-.935 3.06-2.224 0-1.547-1.224-2.095-3.286-2.996l-1.127-.484c-3.255-1.385-5.413-3.125-5.413-6.798 0-3.384 2.577-5.961 6.605-5.961 2.867 0 4.93.999 6.412 3.608l-3.513 2.256c-.773-1.385-1.61-1.933-2.9-1.933-1.32 0-2.158.838-2.158 1.933 0 1.353.838 1.901 2.77 2.74l1.128.482c3.835 1.644 5.993 3.32 5.993 7.089 0 4.06-3.19 6.283-7.475 6.283-4.188 0-6.895-1.998-8.216-4.608" fill="#000"/></g><defs><clipPath id="clip0_6_170"><path fill="#fff" d="M0 0h48v48H0z"/></clipPath></defs></svg>