<svg xmlns="http://www.w3.org/2000/svg" width="100" height="100"><path fill="#f15b6c" d="M69 82H31c-7.18 0-13-5.82-13-13V31c0-7.18 5.82-13 13-13h38c7.18 0 13 5.82 13 13v38c0 7.18-5.82 13-13 13z"/><path fill="#1f212b" d="M66.5 78h-33C27.159 78 22 72.841 22 66.5v-33C22 27.159 27.159 22 33.5 22h33c.353 0 .701.021 1.046.053a.5.5 0 01-.092.996A10.38 10.38 0 0066.5 23h-33C27.71 23 23 27.71 23 33.5v33C23 72.29 27.71 77 33.5 77h33C72.29 77 77 72.29 77 66.5v-17a.5.5 0 011 0v17C78 72.841 72.841 78 66.5 78zm11-38a.5.5 0 01-.5-.5v-2a.5.5 0 011 0v2a.5.5 0 01-.5.5zm0 7a.5.5 0 01-.5-.5v-4a.5.5 0 011 0v4a.5.5 0 01-.5.5z"/><path fill="#1f212b" d="M69 83H31c-7.72 0-14-6.28-14-14V31c0-7.72 6.28-14 14-14h38c7.72 0 14 6.28 14 14v38c0 7.72-6.28 14-14 14zM31 19c-6.617 0-12 5.383-12 12v38c0 6.617 5.383 12 12 12h38c6.617 0 12-5.383 12-12V31c0-6.617-5.383-12-12-12H31z"/><path fill="#fefdef" d="M61.957 48.415c-3.208.557-7.453.865-11.957.865-4.503 0-8.749-.308-11.955-.865-3.593-.625-5.423-1.467-5.901-2.735a2.017 2.017 0 00-.144.72v7.2c0 1.685 1.809 2.719 6.045 3.455 3.205.557 7.452.865 11.955.865 4.504 0 8.749-.308 11.958-.865C66.192 56.319 68 55.285 68 53.6v-7.2c0-.256-.056-.492-.141-.72-.479 1.268-2.31 2.11-5.902 2.735"/><path fill="#fefdef" d="M61.957 59.935c-3.208.557-7.453.865-11.957.865-4.503 0-8.749-.308-11.955-.865-3.593-.625-5.423-1.467-5.901-2.735a2.017 2.017 0 00-.144.72v7.2c0 1.685 1.809 2.719 6.045 3.455 3.205.557 7.452.865 11.955.865 4.504 0 8.749-.308 11.958-.865C66.192 67.839 68 66.805 68 65.12v-7.2c0-.256-.056-.492-.141-.72-.479 1.267-2.31 2.11-5.902 2.735m.001-28.51c-3.208-.558-7.454-.865-11.958-.865-4.503 0-8.749.307-11.956.865-4.235.736-6.044 1.77-6.044 3.455v7.2c0 1.685 1.809 2.719 6.044 3.455 3.207.558 7.453.865 11.956.865 4.504 0 8.749-.307 11.958-.865C66.193 44.798 68 43.765 68 42.08v-7.2c0-1.685-1.807-2.719-6.042-3.455zM50 32c9.147 0 16.56 1.29 16.56 2.88S59.147 37.76 50 37.76c-9.145 0-16.56-1.29-16.56-2.88S40.855 32 50 32z"/><path fill="#f15b6c" d="M56.235 41.517a.864.864 0 01-.057-1.726c2.217-.151 4.207-.379 5.914-.676a27.932 27.932 0 002.278-.465.864.864 0 11.432 1.673c-.913.236-1.781.385-2.415.495-1.765.307-3.814.542-6.092.697l-.06.002zm0 11.52a.864.864 0 01-.057-1.726c2.212-.151 4.202-.379 5.914-.676a27.932 27.932 0 002.278-.465.865.865 0 01.432 1.673c-.913.236-1.781.385-2.415.495-1.77.308-3.819.542-6.092.697l-.06.002zm0 11.519a.865.865 0 01-.057-1.726c2.211-.151 4.201-.378 5.914-.676a27.932 27.932 0 002.278-.465.864.864 0 11.432 1.673c-.913.236-1.781.385-2.415.495-1.771.308-3.821.542-6.092.697l-.06.002z"/></svg>