<svg width="48" height="36" fill="none" xmlns="http://www.w3.org/2000/svg"><g clip-path="url(#clip0_6_179)"><path d="M41.303 20.721a9.908 9.908 0 00-4.337 1.006c-.446-.883-.892-1.67-.97-2.247-.088-.673-.193-1.084-.088-1.889.105-.804.577-1.95.569-2.037-.01-.087-.105-.498-1.067-.507-.962-.009-1.792.184-1.889.437-.096.254-.28.83-.402 1.425-.166.875-1.923 3.996-2.929 5.63-.323-.637-.603-1.197-.664-1.643-.088-.673-.193-1.084-.088-1.888.105-.805.577-1.95.569-2.038-.01-.087-.105-.498-1.067-.507-.962-.008-1.793.184-1.889.438-.096.253-.2.848-.402 1.425-.201.577-2.535 5.788-3.147 7.134a40.157 40.157 0 01-.778 1.618s-.01.026-.035.07c-.086.167-.173.333-.263.498v.009c-.13.236-.27.454-.34.454-.053 0-.15-.63.017-1.486.35-1.81 1.18-4.625 1.171-4.721 0-.053.158-.542-.542-.796-.682-.254-.927.166-.988.166-.06 0-.105.149-.105.149s.761-3.165-1.451-3.165c-1.381 0-3.287 1.512-4.232 2.876a1002.4 1002.4 0 00-3.217 1.758c-.516.288-1.05.577-1.548.848-.035-.035-.07-.08-.105-.114-2.675-2.859-7.624-4.879-7.414-8.717.079-1.399.56-5.07 9.504-9.53 7.362-3.628 13.22-2.623 14.234-.393 1.451 3.182-3.139 9.093-10.745 9.95-2.903.323-4.425-.796-4.81-1.216-.401-.437-.463-.463-.611-.376-.245.131-.088.525 0 .752.227.594 1.162 1.644 2.745 2.16 1.399.454 4.8.708 8.918-.884 4.608-1.783 8.21-6.74 7.152-10.893-1.058-4.215-8.053-5.605-14.671-3.253-3.934 1.4-8.201 3.602-11.27 6.47C.472 11.104-.105 14.068.131 15.31c.848 4.407 6.925 7.275 9.355 9.4-.122.07-.236.13-.332.183-1.215.603-5.85 3.025-7.003 5.587-1.312 2.902.21 4.983 1.215 5.263 3.122.866 6.33-.69 8.053-3.261 1.722-2.57 1.512-5.91.717-7.44-.01-.018-.018-.036-.035-.053l.953-.56a46.489 46.489 0 011.757-.988c-.297.813-.516 1.784-.62 3.183-.132 1.644.541 3.777 1.424 4.616.394.368.857.376 1.155.376 1.031 0 1.495-.857 2.01-1.87.63-1.242 1.198-2.685 1.198-2.685s-.708 3.9 1.215 3.9c.7 0 1.408-.91 1.723-1.373v.009l.052-.088.114-.184v-.017c.28-.49.91-1.6 1.845-3.445 1.206-2.378 2.37-5.35 2.37-5.35s.104.725.463 1.932c.21.708.646 1.486.996 2.238-.28.394-.454.612-.454.612l.009.009c-.228.297-.473.62-.744.935-.953 1.137-2.09 2.44-2.247 2.816-.183.445-.14.769.21 1.031.254.193.708.219 1.172.193.857-.062 1.46-.271 1.757-.402a5.893 5.893 0 001.512-.796c.936-.691 1.504-1.679 1.452-2.981-.026-.718-.262-1.434-.55-2.108.087-.122.165-.244.253-.367 1.477-2.16 2.623-4.529 2.623-4.529s.105.726.463 1.932c.175.612.533 1.277.848 1.924-1.39 1.128-2.247 2.44-2.553 3.296-.55 1.591-.122 2.308.69 2.474.368.079.893-.096 1.277-.262a5.808 5.808 0 001.618-.83c.936-.691 1.836-1.653 1.783-2.956-.026-.594-.183-1.18-.402-1.748 1.18-.49 2.702-.761 4.643-.534 4.162.49 4.983 3.087 4.826 4.18-.157 1.092-1.032 1.687-1.32 1.87-.289.184-.385.245-.358.376.034.193.174.184.42.15.34-.062 2.185-.884 2.264-2.895.13-2.57-2.317-5.377-6.645-5.35zM9.198 31.545c-1.382 1.504-3.305 2.072-4.136 1.592-.891-.516-.542-2.737 1.154-4.328 1.032-.97 2.361-1.871 3.244-2.422.201-.123.499-.297.857-.516.061-.035.096-.052.096-.052l.21-.132c.62 2.274.026 4.276-1.425 5.858zm10.055-6.837c-.481 1.172-1.487 4.17-2.099 4.005-.524-.14-.848-2.414-.105-4.66.376-1.129 1.172-2.475 1.635-3 .752-.839 1.583-1.119 1.784-.777.253.445-.918 3.698-1.215 4.432zm8.297 3.97c-.201.105-.394.174-.481.122-.061-.035.087-.175.087-.175s1.04-1.119 1.452-1.626c.236-.297.515-.647.813-1.04v.113c0 1.338-1.294 2.238-1.871 2.606zm6.4-1.46c-.149-.105-.123-.455.376-1.548.192-.429.646-1.145 1.425-1.836.087.28.149.55.14.804-.01 1.688-1.215 2.317-1.941 2.58z" fill="#CD6799"/></g><defs><clipPath id="clip0_6_179"><path fill="#fff" d="M0 0h48v36H0z"/></clipPath></defs></svg>