<svg width="48" height="48" fill="none" xmlns="http://www.w3.org/2000/svg"><g clip-path="url(#clip0_6_182)"><path d="M0 24v24h48V0H0v24z" fill="#007ACC"/><path d="M10.615 24.16l-.015 1.965h6.247v17.752h4.419V26.125h6.248v-1.928c0-1.066-.023-1.958-.053-1.98-.023-.031-3.825-.046-8.435-.039l-8.389.023-.022 1.958zm28.116-2.015c1.22.305 2.149.846 3.002 1.73.442.472 1.097 1.333 1.15 1.539.016.06-2.072 1.463-3.337 2.247-.045.03-.228-.167-.434-.472-.617-.9-1.265-1.288-2.255-1.356-1.455-.1-2.392.663-2.385 1.935 0 .373.053.594.206.9.32.662.914 1.058 2.78 1.866 3.437 1.478 4.907 2.453 5.822 3.84 1.02 1.546 1.25 4.015.556 5.851-.762 1.996-2.651 3.353-5.31 3.802-.823.145-2.774.122-3.658-.038-1.927-.343-3.756-1.295-4.883-2.545-.442-.487-1.303-1.76-1.25-1.851.023-.03.221-.153.442-.282.213-.122 1.021-.587 1.783-1.029l1.379-.8.29.427c.403.617 1.287 1.463 1.82 1.745 1.532.807 3.635.693 4.67-.236.443-.404.626-.823.626-1.44 0-.557-.07-.8-.359-1.22-.373-.533-1.135-.982-3.299-1.92-2.476-1.066-3.543-1.729-4.518-2.78-.563-.61-1.097-1.585-1.318-2.4-.183-.679-.229-2.378-.084-3.063.511-2.393 2.317-4.061 4.922-4.556.846-.16 2.812-.1 3.642.106z" fill="#fff"/></g><defs><clipPath id="clip0_6_182"><path fill="#fff" d="M0 0h48v48H0z"/></clipPath></defs></svg>